<svg width="27" height="32" fill="none" xmlns="http://www.w3.org/2000/svg"><g clip-path="url(#clip0)"><path d="M18.804 18.457l-8.268 8.268-.004-.005c-.031.032-.056.067-.088.097a5.515 5.515 0 01-7.789 0C.57 24.732.516 21.382 2.479 19.224l1.103 1.102 1.743-1.742a6.291 6.291 0 007.159-1.225l2.968-2.967.742.742.742-.742-2.968-2.967 4.451-4.451-.742-.742-4.451 4.451-2.967-2.967 4.45-4.451-.741-.742-4.451 4.451L6.55 4.007l-.742.742.742.742-2.968 2.967a6.289 6.289 0 00-1.224 7.159L.615 17.359l1.122 1.123c-2.372 2.568-2.317 6.583.176 9.076a6.562 6.562 0 009.272 0l8.361-8.36a4.704 4.704 0 016.645 0l.742-.742a5.755 5.755 0 00-8.129 0v.001zM4.324 9.2l2.968-2.967 7.417 7.417-2.967 2.967a5.252 5.252 0 01-7.418 0 5.25 5.25 0 010-7.418V9.2zm-1.417 7.351c.202.283.422.555.675.808.253.253.527.474.808.675l-.808.808-1.483-1.483.808-.808z" fill="#fff"/></g><defs><clipPath id="clip0"><path fill="#fff" d="M0 0h27v32H0z"/></clipPath></defs></svg>