<svg width="32" height="32" viewBox="0 0 32 32" fill="none" xmlns="http://www.w3.org/2000/svg">
<path d="M26.663 11.193C26.663 5.305 21.89 0.530998 16 0.530998C10.11 0.530998 5.33801 5.305 5.33801 11.193C5.33801 14.661 6.99901 17.735 9.56301 19.68L9.55801 19.683C9.60701 19.716 9.65701 19.754 9.71001 19.795C9.71501 19.799 9.72001 19.803 9.72501 19.806C10.55 20.457 11.736 21.979 11.736 23.987V31.469H20.266V23.987C20.266 21.854 21.498 20.324 22.399 19.716L22.396 19.713C24.985 17.769 26.664 14.68 26.664 11.193H26.663ZM12.801 30.403V27.186H19.199V30.403H12.801V30.403ZM16 12.259C15.412 12.259 14.934 11.781 14.934 11.193C14.934 10.605 15.413 10.126 16 10.126C16.587 10.126 17.066 10.605 17.066 11.193C17.066 11.781 16.587 12.259 16 12.259V12.259ZM21.755 18.861C21.741 18.872 21.727 18.883 21.713 18.894C20.533 19.733 19.199 21.54 19.199 23.987V26.12H16.533V13.25C17.451 13.012 18.132 12.185 18.132 11.194C18.132 10.016 17.177 9.061 15.999 9.061C14.821 9.061 13.866 10.016 13.866 11.194C13.866 12.186 14.547 13.013 15.465 13.25V26.12H12.799V23.987C12.799 21.691 11.497 19.849 10.392 18.977C10.384 18.97 10.373 18.962 10.363 18.954C10.328 18.927 10.294 18.901 10.261 18.876C10.243 18.86 10.225 18.845 10.205 18.831C7.78801 16.997 6.40101 14.213 6.40101 11.193C6.40101 5.902 10.706 1.597 15.997 1.597C21.288 1.597 25.593 5.902 25.593 11.193C25.593 14.233 24.193 17.027 21.751 18.86L21.755 18.861Z" fill="white"/>
</svg>
