<svg width="32" height="32" viewBox="0 0 32 32" fill="none" xmlns="http://www.w3.org/2000/svg">
<path d="M21.886 5.115C25.407 5.115 28.262 7.97 28.262 11.491C28.262 13.3 27.508 14.93 26.298 16.091L16.001 26.44L5.517 15.904C4.417 14.758 3.739 13.205 3.739 11.491C3.739 7.969 6.594 5.115 10.115 5.115C12.767 5.115 15.04 6.735 16.001 9.039C16.962 6.735 19.235 5.115 21.887 5.115H21.886ZM21.886 4.049C19.541 4.049 17.387 5.138 16 6.933C14.614 5.138 12.46 4.049 10.114 4.049C6.01 4.049 2.672 7.388 2.672 11.491C2.672 13.419 3.409 15.249 4.747 16.643L16 27.952L27.053 16.844C28.513 15.442 29.328 13.536 29.328 11.492C29.328 7.388 25.989 4.05 21.886 4.05V4.049Z" fill="white"/>
</svg>
