<svg width="32" height="32" viewBox="0 0 32 32" fill="none" xmlns="http://www.w3.org/2000/svg">
<path d="M16.533 8.562V6.915C16.533 6.428 17.562 5.784 18.388 5.266C19.572 4.525 20.798 3.757 20.798 2.639V0.00600052H19.732V2.639C19.732 3.166 18.674 3.829 17.823 4.362C16.665 5.087 15.467 5.837 15.467 6.914V8.561C11.3 8.829 8.00299 12.187 8.00299 16.3V24.227C8.00299 28.515 11.583 31.992 16 31.992C20.417 31.992 23.997 28.515 23.997 24.227V16.3C23.997 12.186 20.7 8.828 16.533 8.561V8.562ZM22.931 16.301V17.066H16.533V9.628C20.105 9.893 22.931 12.781 22.931 16.301V16.301ZM9.06899 16.301C9.06899 12.781 11.894 9.893 15.467 9.628V17.066H9.06899V16.301ZM16 30.927C12.179 30.927 9.06899 27.922 9.06899 24.228V18.132H22.93V24.228C22.93 27.922 19.821 30.927 15.999 30.927H16Z" fill="white"/>
</svg>
