<svg width="32" height="32" viewBox="0 0 32 32" fill="none" xmlns="http://www.w3.org/2000/svg">
<path d="M27.995 5.338V3.684C27.995 2.242 26.826 1.073 25.384 1.073H8.217C6.775 1.073 5.607 2.242 5.607 3.684V5.338H5.118C3.914 5.338 2.94 6.314 2.94 7.517V11.166C2.94 12.369 3.915 13.345 5.118 13.345L15.155 13.342C15.768 13.342 16.268 13.841 16.268 14.455V18.134H14.137V30.929H19.468V18.134H17.334V14.455C17.334 13.252 16.358 12.276 15.155 12.276H13.835V12.279H5.119C4.506 12.279 4.007 11.78 4.007 11.166V7.517C4.007 6.904 4.506 6.404 5.119 6.404H5.608V8.058C5.608 9.5 6.776 10.669 8.218 10.669H25.385C26.827 10.669 27.996 9.5 27.996 8.058V6.404H29.062V5.338H27.996H27.995ZM18.4 29.861H15.201V19.198H18.4V29.861ZM26.929 8.058C26.929 8.91 26.235 9.603 25.384 9.603H8.217C7.365 9.603 6.673 8.91 6.673 8.058V3.684C6.673 2.832 7.365 2.139 8.217 2.139H25.384C26.236 2.139 26.929 2.832 26.929 3.684V8.058V8.058Z" fill="white"/>
</svg>
