<svg width="27" height="32" viewBox="0 0 27 32" fill="none" xmlns="http://www.w3.org/2000/svg">
<g clip-path="url(#clip0)">
<path d="M18.804 18.457L10.536 26.725L10.532 26.72C10.501 26.752 10.476 26.787 10.444 26.817C8.297 28.964 4.802 28.964 2.655 26.817C0.569999 24.732 0.515999 21.382 2.479 19.224L3.582 20.326L5.325 18.584C7.664 19.7 10.546 19.296 12.484 17.359L15.452 14.392L16.194 15.134L16.936 14.392L13.968 11.425L18.419 6.974L17.677 6.23199L13.226 10.683L10.259 7.71599L14.709 3.265L13.968 2.52299L9.517 6.974L6.55 4.00699L5.808 4.749L6.55 5.491L3.582 8.458C1.645 10.395 1.241 13.278 2.358 15.617L0.614999 17.359L1.737 18.482C-0.635001 21.05 -0.580001 25.065 1.913 27.558C4.469 30.115 8.629 30.115 11.185 27.558L19.546 19.198C21.378 17.366 24.359 17.366 26.191 19.198L26.933 18.456C24.692 16.215 21.044 16.215 18.804 18.456V18.457ZM4.324 9.2L7.292 6.23299L14.709 13.65L11.742 16.617C9.697 18.662 6.37 18.662 4.324 16.617C2.278 14.572 2.279 11.245 4.324 9.199V9.2ZM2.907 16.551C3.109 16.834 3.329 17.106 3.582 17.359C3.835 17.612 4.109 17.833 4.39 18.034L3.582 18.842L2.099 17.359L2.907 16.551Z" fill="white"/>
</g>
<defs>
<clipPath id="clip0">
<rect width="27" height="32" fill="white"/>
</clipPath>
</defs>
</svg>
