<svg width="32" height="32" viewBox="0 0 32 32" fill="none" xmlns="http://www.w3.org/2000/svg">
<path d="M29.532 25.76L23.877 20.105L24.631 19.351L23.877 18.597L21.616 20.858L17.845 17.088L22.375 12.556C22.978 12.771 23.609 12.88 24.257 12.88C25.75 12.88 27.154 12.298 28.211 11.243C29.841 9.612 30.303 7.189 29.389 5.069L29.078 4.347L26.648 6.777L24.692 6.804L24.718 4.938L27.195 2.461L26.475 2.149C25.769 1.843 25.018 1.688 24.246 1.688C22.752 1.688 21.349 2.27 20.294 3.325C18.748 4.87 18.251 7.127 18.983 9.165L14.454 13.694L8.045 7.286L8.799 6.532L4.654 2.386L2.39 4.647L6.537 8.794L7.29 8.04L13.699 14.448L9.17 18.977C8.565 18.76 7.931 18.651 7.282 18.651C5.789 18.651 4.385 19.233 3.329 20.288C1.696 21.92 1.234 24.347 2.153 26.469L2.465 27.189L4.942 24.712L6.807 24.687L6.78 26.643L4.35 29.073L5.072 29.384C5.776 29.687 6.524 29.842 7.293 29.842C8.787 29.842 10.19 29.261 11.245 28.206C12.789 26.662 13.286 24.407 12.559 22.373L17.091 17.841L20.862 21.61L18.599 23.873L19.353 24.627L20.107 23.873L25.761 29.527C26.264 30.031 26.935 30.308 27.646 30.308C28.357 30.308 29.027 30.031 29.531 29.527C30.57 28.488 30.57 26.797 29.531 25.758L29.532 25.76ZM3.899 4.648L4.653 3.895L7.291 6.533L6.537 7.287L3.898 4.648H3.899ZM11.448 22.456C12.187 24.172 11.812 26.135 10.493 27.455C9.639 28.309 8.504 28.779 7.295 28.779C6.948 28.779 6.606 28.74 6.274 28.663L7.843 27.094L7.89 23.609L4.496 23.655L2.877 25.274C2.521 23.764 2.958 22.171 4.085 21.045C4.939 20.191 6.075 19.72 7.284 19.72C7.91 19.72 8.517 19.845 9.09 20.093L9.423 20.237L20.242 9.418L20.098 9.085C19.354 7.366 19.728 5.403 21.05 4.081C21.904 3.227 23.04 2.756 24.248 2.756C24.598 2.756 24.943 2.796 25.278 2.873L23.66 4.491L23.613 7.885L27.098 7.838L28.668 6.268C29.02 7.775 28.582 9.365 27.459 10.489C26.604 11.343 25.468 11.814 24.259 11.814C23.635 11.814 23.029 11.689 22.458 11.443L22.126 11.3L11.305 22.123L11.448 22.455V22.456ZM28.779 28.775C28.477 29.077 28.075 29.244 27.648 29.244C27.221 29.244 26.819 29.077 26.517 28.775L20.863 23.121L23.125 20.859L28.78 26.514C29.404 27.138 29.404 28.152 28.781 28.775H28.779Z" fill="white"/>
</svg>
